<svg xmlns="http://www.w3.org/2000/svg" xmlns:xlink="http://www.w3.org/1999/xlink" width="66" zoomAndPan="magnify" viewBox="0 0 49.5 56.999997" height="76" preserveAspectRatio="xMidYMid meet" version="1.0"><defs><clipPath id="423606500e"><path d="M 0 1.503906 L 49.003906 1.503906 L 49.003906 56.253906 L 0 56.253906 Z M 0 1.503906 " clip-rule="nonzero"/></clipPath></defs><g clip-path="url(#423606500e)"><path fill="#8cc84b" d="M 22.464844 2.234375 C 23.824219 1.460938 25.558594 1.457031 26.882812 2.234375 L 47.183594 13.71875 C 48.453125 14.433594 49.300781 15.855469 49.289062 17.324219 L 49.289062 40.347656 C 49.296875 41.878906 48.363281 43.332031 47.027344 44.03125 L 26.835938 55.464844 C 26.132812 55.855469 25.378906 56.039062 24.578125 56.015625 C 23.773438 55.992188 23.03125 55.769531 22.351562 55.339844 L 16.292969 51.824219 C 15.878906 51.578125 15.417969 51.382812 15.125 50.980469 C 15.382812 50.632812 15.839844 50.589844 16.214844 50.4375 C 17.058594 50.167969 17.828125 49.753906 18.605469 49.316406 C 18.800781 49.179688 19.039062 49.230469 19.226562 49.355469 L 24.394531 52.351562 C 24.761719 52.566406 25.136719 52.285156 25.453125 52.105469 L 45.273438 40.878906 C 45.519531 40.757812 45.65625 40.5 45.636719 40.230469 L 45.636719 17.425781 C 45.664062 17.117188 45.488281 16.839844 45.210938 16.714844 L 25.074219 5.332031 C 24.808594 5.148438 24.546875 5.148438 24.28125 5.332031 L 4.171875 16.738281 C 3.902344 16.859375 3.714844 17.136719 3.75 17.445312 L 3.75 40.25 C 3.726562 40.519531 3.867188 40.773438 4.113281 40.886719 L 9.488281 43.933594 C 10.496094 44.476562 11.734375 44.785156 12.847656 44.382812 C 13.34375 44.195312 13.746094 43.882812 14.046875 43.441406 C 14.347656 43.003906 14.5 42.515625 14.496094 41.980469 L 14.503906 19.3125 C 14.480469 18.976562 14.792969 18.699219 15.121094 18.734375 L 17.703125 18.734375 C 18.042969 18.726562 18.308594 19.085938 18.261719 19.425781 L 18.257812 42.234375 C 18.261719 44.261719 17.429688 46.464844 15.5625 47.460938 C 13.261719 48.652344 10.417969 48.402344 8.144531 47.253906 L 2.367188 44.046875 C 1.007812 43.367188 0.09375 41.890625 0.101562 40.363281 L 0.101562 17.339844 C 0.109375 16.578125 0.304688 15.867188 0.695312 15.214844 C 1.085938 14.5625 1.613281 14.050781 2.28125 13.6875 Z M 28.320312 18.195312 C 31.253906 18.023438 34.394531 18.082031 37.035156 19.535156 C 39.082031 20.644531 40.214844 22.980469 40.25 25.261719 C 40.195312 25.566406 39.875 25.738281 39.582031 25.714844 C 38.734375 25.714844 37.878906 25.726562 37.027344 25.710938 C 36.664062 25.726562 36.457031 25.390625 36.410156 25.070312 C 36.164062 23.980469 35.570312 22.898438 34.546875 22.371094 C 32.976562 21.582031 31.15625 21.621094 29.445312 21.636719 C 28.191406 21.707031 26.847656 21.8125 25.789062 22.550781 C 24.972656 23.109375 24.730469 24.257812 25.019531 25.148438 C 25.292969 25.800781 26.046875 26.011719 26.660156 26.203125 C 30.195312 27.132812 33.945312 27.058594 37.414062 28.261719 C 38.851562 28.761719 40.257812 29.730469 40.75 31.238281 C 41.390625 33.261719 41.113281 35.679688 39.679688 37.304688 C 38.515625 38.640625 36.824219 39.351562 35.132812 39.765625 C 32.886719 40.265625 30.554688 40.277344 28.269531 40.054688 C 26.125 39.808594 23.890625 39.242188 22.234375 37.773438 C 20.816406 36.539062 20.128906 34.617188 20.195312 32.761719 C 20.210938 32.445312 20.523438 32.230469 20.824219 32.253906 L 23.375 32.253906 C 23.714844 32.230469 23.96875 32.527344 23.984375 32.851562 C 24.144531 33.875 24.53125 34.984375 25.4375 35.578125 C 27.179688 36.710938 29.367188 36.628906 31.363281 36.664062 C 33.015625 36.589844 34.871094 36.566406 36.222656 35.46875 C 36.9375 34.84375 37.144531 33.796875 36.953125 32.898438 C 36.746094 32.136719 35.933594 31.785156 35.253906 31.53125 C 31.761719 30.425781 27.972656 30.828125 24.515625 29.570312 C 23.109375 29.074219 21.753906 28.132812 21.214844 26.683594 C 20.460938 24.636719 20.804688 22.101562 22.390625 20.53125 C 23.921875 18.972656 26.164062 18.367188 28.289062 18.152344 Z M 28.320312 18.195312 " fill-opacity="1" fill-rule="nonzero"/></g></svg>